<?xml version="1.0" encoding="UTF-8" standalone="no"?>
<!-- Created with Inkscape (http://www.inkscape.org/) -->

<svg
   xmlns:dc="http://purl.org/dc/elements/1.1/"
   xmlns:cc="http://creativecommons.org/ns#"
   xmlns:rdf="http://www.w3.org/1999/02/22-rdf-syntax-ns#"
   xmlns:svg="http://www.w3.org/2000/svg"
   xmlns="http://www.w3.org/2000/svg"
   xmlns:xlink="http://www.w3.org/1999/xlink"
   xmlns:sodipodi="http://sodipodi.sourceforge.net/DTD/sodipodi-0.dtd"
   xmlns:inkscape="http://www.inkscape.org/namespaces/inkscape"
   width="210mm"
   height="297mm"
   id="svg2"
   version="1.1"
   inkscape:version="0.47pre4 r22446"
   sodipodi:docname="Novo documento 1">
  <defs
     id="defs4">
    <linearGradient
       inkscape:collect="always"
       id="linearGradient3681">
      <stop
         style="stop-color:#666666;stop-opacity:1;"
         offset="0"
         id="stop3683" />
      <stop
         style="stop-color:#666666;stop-opacity:0;"
         offset="1"
         id="stop3685" />
    </linearGradient>
    <linearGradient
       inkscape:collect="always"
       id="linearGradient3644">
      <stop
         style="stop-color:#666666;stop-opacity:1;"
         offset="0"
         id="stop3646" />
      <stop
         style="stop-color:#666666;stop-opacity:0;"
         offset="1"
         id="stop3648" />
    </linearGradient>
    <linearGradient
       inkscape:collect="always"
       id="linearGradient3626">
      <stop
         style="stop-color:#000000;stop-opacity:1;"
         offset="0"
         id="stop3628" />
      <stop
         style="stop-color:#000000;stop-opacity:0;"
         offset="1"
         id="stop3630" />
    </linearGradient>
    <inkscape:perspective
       sodipodi:type="inkscape:persp3d"
       inkscape:vp_x="0 : 526.18109 : 1"
       inkscape:vp_y="0 : 1000 : 0"
       inkscape:vp_z="744.09448 : 526.18109 : 1"
       inkscape:persp3d-origin="372.04724 : 350.78739 : 1"
       id="perspective10" />
    <linearGradient
       inkscape:collect="always"
       xlink:href="#linearGradient3626"
       id="linearGradient3632"
       x1="306.07623"
       y1="509.91025"
       x2="308.09653"
       y2="592.7428"
       gradientUnits="userSpaceOnUse"
       gradientTransform="matrix(1.5455124,0,0,1.5455124,-76.518429,-603.78154)" />
    <linearGradient
       inkscape:collect="always"
       xlink:href="#linearGradient3644"
       id="linearGradient3650"
       x1="290.25568"
       y1="567.10242"
       x2="291.52664"
       y2="476.2287"
       gradientUnits="userSpaceOnUse"
       gradientTransform="matrix(2.2480181,0,0,-1.7497552,-268.21434,1109.6631)" />
    <linearGradient
       inkscape:collect="always"
       xlink:href="#linearGradient3644"
       id="linearGradient3659"
       gradientUnits="userSpaceOnUse"
       gradientTransform="matrix(2.2480181,0,0,-1.7497552,-268.21434,1109.6631)"
       x1="290.25568"
       y1="567.10242"
       x2="291.52664"
       y2="476.2287" />
    <linearGradient
       inkscape:collect="always"
       xlink:href="#linearGradient3644"
       id="linearGradient3662"
       gradientUnits="userSpaceOnUse"
       gradientTransform="matrix(2.2480181,0,0,-1.7497552,-268.21434,1109.6631)"
       x1="290.25568"
       y1="567.10242"
       x2="291.52664"
       y2="476.2287" />
    <linearGradient
       inkscape:collect="always"
       xlink:href="#linearGradient3681"
       id="linearGradient3687"
       x1="387.14285"
       y1="95.219322"
       x2="397.14285"
       y2="306.64789"
       gradientUnits="userSpaceOnUse"
       gradientTransform="matrix(1.660859,0,0,1.660859,-257.06014,-27.523414)" />
  </defs>
  <sodipodi:namedview
     id="base"
     pagecolor="#ffffff"
     bordercolor="#666666"
     borderopacity="1.0"
     inkscape:pageopacity="0.0"
     inkscape:pageshadow="2"
     inkscape:zoom="0.98994949"
     inkscape:cx="447.02127"
     inkscape:cy="826.21087"
     inkscape:document-units="px"
     inkscape:current-layer="layer1"
     showgrid="false"
     inkscape:snap-global="false"
     inkscape:window-width="1280"
     inkscape:window-height="645"
     inkscape:window-x="0"
     inkscape:window-y="25"
     inkscape:window-maximized="1" />
  <metadata
     id="metadata7">
    <rdf:RDF>
      <cc:Work
         rdf:about="">
        <dc:format>image/svg+xml</dc:format>
        <dc:type
           rdf:resource="http://purl.org/dc/dcmitype/StillImage" />
        <dc:title></dc:title>
      </cc:Work>
    </rdf:RDF>
  </metadata>
  <g
     inkscape:label="Camada 1"
     inkscape:groupmode="layer"
     id="layer1">
    <path
       sodipodi:type="inkscape:offset"
       inkscape:radius="1.9545331"
       inkscape:original="M 409.46875 78.75 A 8.501168 8.501168 0 0 0 404.5 80.625 L 364.8125 112.75 A 8.501168 8.501168 0 0 0 364.9375 126.09375 L 391.65625 146.90625 L 386.5 183.75 A 8.5072099 8.5072099 0 1 0 403.34375 186.0625 L 409.15625 144.34375 A 8.501168 8.501168 0 0 0 405.96875 136.46875 L 383.84375 119.28125 L 409.46875 98.5 L 432.375 119.90625 A 8.501168 8.501168 0 0 0 437.4375 122.15625 L 458.59375 124 A 8.5070731 8.5070731 0 1 0 460.03125 107.0625 L 441.84375 105.46875 L 415.65625 81.03125 A 8.501168 8.501168 0 0 0 409.46875 78.75 z "
       style="font-size:medium;font-style:normal;font-variant:normal;font-weight:normal;font-stretch:normal;text-indent:0;text-align:start;text-decoration:none;line-height:normal;letter-spacing:normal;word-spacing:normal;text-transform:none;direction:ltr;block-progression:tb;writing-mode:lr-tb;text-anchor:start;color:#000000;fill:#d40000;fill-opacity:1;stroke:none;stroke-width:11;marker:none;visibility:visible;display:inline;overflow:visible;enable-background:accumulate;font-family:'.PhonepadTwo';-inkscape-font-specification:'.PhonepadTwo'"
       id="path3668"
       d="m 409.375,76.8125 c -0.17314,0.0075 -0.64049,0.04131 -0.8125,0.0625 -0.17201,0.02119 -0.64272,0.09023 -0.8125,0.125 -0.16978,0.03477 -0.64601,0.13937 -0.8125,0.1875 -0.16649,0.04813 -0.6191,0.220063 -0.78125,0.28125 -0.16215,0.06119 -0.62447,0.238642 -0.78125,0.3125 -0.15678,0.07386 -0.56832,0.288937 -0.71875,0.375 -0.15043,0.08606 -0.57563,0.339774 -0.71875,0.4375 -0.14312,0.09773 -0.52133,0.391228 -0.65625,0.5 l -39.6875,32.125 c -0.19177,0.15435 -0.70182,0.63754 -0.875,0.8125 -0.17318,0.17496 -0.62887,0.68166 -0.78125,0.875 -0.15238,0.19334 -0.55785,0.75949 -0.6875,0.96875 -0.12965,0.20926 -0.45723,0.80872 -0.5625,1.03125 -0.10527,0.22253 -0.35795,0.86079 -0.4375,1.09375 -0.0795,0.23296 -0.25968,0.88456 -0.3125,1.125 -0.0528,0.24044 -0.16208,0.9114 -0.1875,1.15625 -0.0254,0.24485 -0.0648,0.94134 -0.0625,1.1875 0.002,0.24616 0.0325,0.94317 0.0625,1.1875 0.03,0.24433 0.16144,0.91685 0.21875,1.15625 0.0573,0.2394 0.25985,0.89357 0.34375,1.125 0.0839,0.23143 0.35933,0.87323 0.46875,1.09375 0.10942,0.22052 0.4602,0.7932 0.59375,1 0.13355,0.2068 0.53152,0.7783 0.6875,0.96875 0.15598,0.19045 0.60483,0.70332 0.78125,0.875 0.17642,0.17168 0.71162,0.59927 0.90625,0.75 l 25.8125,20.09375 -5,35.6875 0,0.0625 c -0.0399,0.24416 -0.10961,0.79362 -0.125,1 -0.0163,0.2191 -0.037,0.81162 -0.0312,1.03125 0.006,0.21963 0.066,0.84456 0.0937,1.0625 0.0278,0.21794 0.13799,0.8172 0.1875,1.03125 0.0495,0.21405 0.21049,0.792 0.28125,1 0.0708,0.208 0.31496,0.80016 0.40625,1 0.0913,0.19984 0.35786,0.71659 0.46875,0.90625 0.11089,0.18966 0.43312,0.72868 0.5625,0.90625 0.12938,0.17757 0.54094,0.64882 0.6875,0.8125 0.14656,0.16368 0.5565,0.60186 0.71875,0.75 0.16225,0.14814 0.63619,0.52515 0.8125,0.65625 0.17631,0.1311 0.68642,0.48102 0.875,0.59375 0.18858,0.11273 0.73855,0.40678 0.9375,0.5 0.19895,0.0932 0.76145,0.30223 0.96875,0.375 0.2073,0.0728 0.78644,0.26091 1,0.3125 0.21356,0.0516 0.84484,0.15762 1.0625,0.1875 0.21766,0.0299 0.81169,0.0859 1.03125,0.0937 0.21956,0.008 0.84326,-0.017 1.0625,-0.0312 0.21924,-0.0142 0.81454,-0.0576 1.03125,-0.0937 0.21671,-0.0362 0.81927,-0.19226 1.03125,-0.25 0.21198,-0.0577 0.79489,-0.23377 1,-0.3125 0.20511,-0.0787 0.77258,-0.33857 0.96875,-0.4375 0.19617,-0.0989 0.72101,-0.38187 0.90625,-0.5 0.18524,-0.11813 0.70255,-0.48887 0.875,-0.625 0.17245,-0.13613 0.62335,-0.53474 0.78125,-0.6875 0.1579,-0.15276 0.57698,-0.6134 0.71875,-0.78125 0.14177,-0.16785 0.5008,-0.63127 0.625,-0.8125 0.1242,-0.18123 0.45713,-0.71346 0.5625,-0.90625 0.10537,-0.19279 0.35202,-0.73511 0.4375,-0.9375 0.0855,-0.20239 0.31028,-0.79005 0.375,-1 0.0647,-0.20995 0.20669,-0.81586 0.25,-1.03125 0.0395,-0.19625 0.12635,-0.6811 0.15625,-0.9375 0.003,-0.025 -0.002,-0.0743 0,-0.0937 l 5.8125,-41.625 c 0.0394,-0.28271 0.0915,-1.08956 0.0937,-1.375 0.002,-0.28544 -0.0275,-1.09171 -0.0625,-1.375 -0.035,-0.28329 -0.20958,-1.06745 -0.28125,-1.34375 -0.0717,-0.2763 -0.29915,-1.01666 -0.40625,-1.28125 -0.1071,-0.26459 -0.45306,-1.00164 -0.59375,-1.25 -0.14069,-0.24836 -0.57811,-0.89711 -0.75,-1.125 -0.17189,-0.22789 -0.70611,-0.82773 -0.90625,-1.03125 -0.20014,-0.20352 -0.80627,-0.73057 -1.03125,-0.90625 l -20.1875,-15.6875 22.40625,-18.15625 21.65625,20.25 c 0.13247,0.12344 0.51401,0.45047 0.65625,0.5625 0.14224,0.11203 0.56771,0.40014 0.71875,0.5 0.15104,0.0999 0.5912,0.3505 0.75,0.4375 0.1588,0.087 0.61579,0.33271 0.78125,0.40625 0.16546,0.0735 0.61026,0.25293 0.78125,0.3125 0.17099,0.0596 0.66841,0.2048 0.84375,0.25 0.17534,0.0452 0.66527,0.15699 0.84375,0.1875 0.17848,0.0305 0.69461,0.0781 0.875,0.0937 l 21.0625,1.84375 0.0937,0 c 0.25689,0.0283 0.7678,0.0884 0.96875,0.0937 0.22023,0.006 0.81155,-0.015 1.03125,-0.0312 0.2197,-0.0163 0.84555,-0.0867 1.0625,-0.125 0.21695,-0.0383 0.81927,-0.19002 1.03125,-0.25 0.21198,-0.06 0.79513,-0.26273 1,-0.34375 0.20487,-0.081 0.77308,-0.33626 0.96875,-0.4375 0.19567,-0.10124 0.72177,-0.41082 0.90625,-0.53125 0.18448,-0.12043 0.67234,-0.48661 0.84375,-0.625 0.17141,-0.13839 0.62464,-0.53255 0.78125,-0.6875 0.15661,-0.15495 0.57854,-0.61132 0.71875,-0.78125 0.14021,-0.16993 0.50261,-0.66056 0.625,-0.84375 0.12239,-0.18319 0.42793,-0.71167 0.53125,-0.90625 0.10332,-0.19458 0.38555,-0.76476 0.46875,-0.96875 0.0832,-0.20399 0.28151,-0.75742 0.34375,-0.96875 0.0622,-0.21133 0.20936,-0.81472 0.25,-1.03125 0.0406,-0.21653 0.10637,-0.84298 0.125,-1.0625 0.0186,-0.21952 0.0348,-0.81097 0.0312,-1.03125 -0.004,-0.22028 -0.0368,-0.8437 -0.0625,-1.0625 -0.0257,-0.2188 -0.10862,-0.81615 -0.15625,-1.03125 -0.0476,-0.2151 -0.2122,-0.82204 -0.28125,-1.03125 -0.0691,-0.20921 -0.31649,-0.76756 -0.40625,-0.96875 -0.0898,-0.20119 -0.35918,-0.77762 -0.46875,-0.96875 -0.10957,-0.19113 -0.43425,-0.69587 -0.5625,-0.875 -0.12825,-0.17913 -0.51061,-0.6472 -0.65625,-0.8125 -0.14564,-0.1653 -0.58846,-0.6002 -0.75,-0.75 -0.16154,-0.1498 -0.63669,-0.55473 -0.8125,-0.6875 -0.17581,-0.13277 -0.68672,-0.47936 -0.875,-0.59375 -0.18828,-0.11439 -0.70741,-0.40515 -0.90625,-0.5 -0.19884,-0.0948 -0.76137,-0.3319 -0.96875,-0.40625 -0.20738,-0.0743 -0.81744,-0.25941 -1.03125,-0.3125 -0.21381,-0.0531 -0.81318,-0.15621 -1.03125,-0.1875 -0.20497,-0.0294 -0.72024,-0.08 -0.96875,-0.0937 l -0.0625,0 -17.40625,-1.53125 -25.71875,-24 c -0.15877,-0.148366 -0.63977,-0.524403 -0.8125,-0.65625 -0.17273,-0.131847 -0.65877,-0.479728 -0.84375,-0.59375 -0.18498,-0.114022 -0.71085,-0.404933 -0.90625,-0.5 -0.1954,-0.09507 -0.76486,-0.33108 -0.96875,-0.40625 -0.20389,-0.07517 -0.78965,-0.257971 -1,-0.3125 -0.21035,-0.05453 -0.78527,-0.185403 -1,-0.21875 -0.21473,-0.03335 -0.84552,-0.08192 -1.0625,-0.09375 -0.21698,-0.01183 -0.81417,-0.0098 -1.03125,0 z"
       transform="matrix(1.6571176,-0.11141818,0.11141818,1.6571176,-273.06081,12.096502)" />
    <path
       id="path3594"
       style="color:#000000;fill:#666666;stroke:none;stroke-width:11;marker:none;visibility:visible;display:inline;overflow:visible;enable-background:accumulate"
       d="m 486.0035,70.983679 c 0,16.201696 -13.13405,29.335731 -29.33573,29.335731 -16.2017,0 -29.33579,-13.134035 -29.33579,-29.335731 0,-16.201685 13.13409,-29.33574 29.33579,-29.33574 16.20168,0 29.33573,13.134055 29.33573,29.33574 z m 14.7288,112.015801 c -38.07287,0 -69.06503,30.99218 -69.06503,69.06505 0,38.07295 30.99216,69.06508 69.06503,69.06508 38.07295,0 69.06509,-30.99213 69.06509,-69.06508 0,-38.07287 -30.99214,-69.06505 -69.06509,-69.06505 z m 0,13.71677 c 30.66507,0 55.42856,24.68329 55.42856,55.34828 0,30.66507 -24.76349,55.34831 -55.42856,55.34831 -30.66499,0 -55.34828,-24.68324 -55.34828,-55.34831 0,-30.66499 24.68329,-55.34828 55.34828,-55.34828 z M 305.94735,182.99948 c -38.0729,0 -69.06507,30.99218 -69.06507,69.06505 0,38.07295 30.99217,69.06508 69.06507,69.06508 38.07292,0 69.06505,-30.99213 69.06505,-69.06508 0,-38.07287 -30.99213,-69.06505 -69.06505,-69.06505 z m 0,13.71677 c 30.66504,0 55.42852,24.68329 55.42852,55.34828 0,30.66507 -24.76348,55.34831 -55.42852,55.34831 -30.66502,0 -55.34831,-24.68324 -55.34831,-55.34831 0,-30.66499 24.68329,-55.34828 55.34831,-55.34828 z" />
    <path
       id="path3677"
       style="color:#000000;fill:url(#linearGradient3687);fill-opacity:1;stroke:none;stroke-width:11;marker:none;visibility:visible;display:inline;overflow:visible;enable-background:accumulate"
       d="m 486.0035,508.05894 c 0,-12.07538 -13.13405,-21.86438 -29.33575,-21.86438 -16.20168,0 -29.33577,9.789 -29.33577,21.86438 0,12.07536 13.13409,21.86438 29.33577,21.86438 16.2017,0 29.33575,-9.78902 29.33575,-21.86438 z m 14.7288,-83.48711 c -38.07287,0 -69.06504,-23.09895 -69.06504,-51.47524 0,-28.37636 30.99217,-51.47527 69.06504,-51.47527 38.07295,0 69.06508,23.09891 69.06508,51.47527 0,28.37629 -30.99213,51.47524 -69.06508,51.47524 z m 0,-10.22332 c 30.66507,0 55.42856,-18.39684 55.42856,-41.25192 0,-22.85515 -24.76349,-41.25197 -55.42856,-41.25197 -30.66499,0 -55.34828,18.39682 -55.34828,41.25197 0,22.85508 24.68329,41.25192 55.34828,41.25192 z m -194.78495,10.22332 c -38.07291,0 -69.06507,-23.09895 -69.06507,-51.47524 0,-28.37636 30.99216,-51.47527 69.06507,-51.47527 38.0729,0 69.06505,23.09891 69.06505,51.47527 0,28.37629 -30.99215,51.47524 -69.06505,51.47524 z m 0,-10.22332 c 30.66502,0 55.42852,-18.39684 55.42852,-41.25192 0,-22.85515 -24.7635,-41.25197 -55.42852,-41.25197 -30.66503,0 -55.34832,18.39682 -55.34832,41.25197 0,22.85508 24.68329,41.25192 55.34832,41.25192 z M 413.88,491.07443 c -0.28608,-0.0236 -1.05677,-0.1043 -1.33945,-0.14466 -0.28267,-0.0405 -1.05501,-0.16476 -1.33247,-0.22186 -0.27748,-0.0571 -1.05499,-0.22578 -1.32552,-0.29904 -0.27053,-0.0732 -1.00141,-0.32322 -1.26329,-0.41225 -0.26189,-0.089 -1.00823,-0.34659 -1.2598,-0.45083 -0.25159,-0.1043 -0.90959,-0.40405 -1.14928,-0.52285 -0.2397,-0.11875 -0.91603,-0.46744 -1.14231,-0.60002 -0.22627,-0.13254 -0.82031,-0.52649 -1.03177,-0.67205 l -62.18754,-42.9725 c -0.30059,-0.20656 -1.09197,-0.84568 -1.35945,-1.07616 -0.26748,-0.23046 -0.96617,-0.89412 -1.19713,-1.14557 -0.23098,-0.25142 -0.83982,-0.98435 -1.03135,-1.25357 -0.19151,-0.26921 -0.66756,-1.03679 -0.81722,-1.32038 -0.14964,-0.28358 -0.49725,-1.09287 -0.60313,-1.38719 -0.10579,-0.29432 -0.33175,-1.11407 -0.39249,-1.41541 -0.0606,-0.30135 -0.16705,-1.1391 -0.18188,-1.44364 -0.0149,-0.3045 -0.003,-1.168 0.0287,-1.47182 0.0307,-0.30387 0.15895,-1.1622 0.23588,-1.46147 0.0769,-0.29927 0.36967,-1.11897 0.49133,-1.40989 0.12157,-0.29091 0.53016,-1.08205 0.69497,-1.36091 0.16476,-0.27887 0.69274,-1.04868 0.89864,-1.31194 0.2059,-0.26328 0.85097,-0.94144 1.09534,-1.18577 0.24434,-0.24431 0.9675,-0.91713 1.2472,-1.1394 0.27969,-0.22226 1.08064,-0.81842 1.39212,-1.0158 0.31146,-0.19739 1.24599,-0.68107 1.58532,-0.85106 l 45.01315,-22.67378 -4.30935,-44.49195 0.007,-0.0772 c -0.0389,-0.30487 -0.0932,-0.98929 -0.0957,-1.24545 -0.003,-0.27196 0.0291,-1.0055 0.0631,-1.27627 0.0344,-0.27077 0.20347,-1.0376 0.27366,-1.30449 0.0703,-0.26686 0.31972,-0.99784 0.4256,-1.2581 0.10596,-0.26025 0.43705,-0.9607 0.57749,-1.21171 0.14051,-0.25102 0.61107,-0.9621 0.78463,-1.20135 0.17356,-0.23923 0.67284,-0.85531 0.87775,-1.08035 0.20488,-0.22503 0.7989,-0.86402 1.03308,-1.07257 0.23418,-0.20857 0.9687,-0.75642 1.2298,-0.94642 0.26111,-0.18999 0.98924,-0.69712 1.27463,-0.86661 0.28537,-0.1695 1.11274,-0.59578 1.41952,-0.74305 0.30678,-0.14732 1.19107,-0.5371 1.51613,-0.66067 0.32506,-0.12357 1.26918,-0.44108 1.60926,-0.53968 0.34006,-0.0987 1.29548,-0.31005 1.6471,-0.38271 0.35164,-0.0728 1.33231,-0.25694 1.69195,-0.30291 0.35965,-0.046 1.41756,-0.12457 1.78157,-0.14333 0.36403,-0.0188 1.35463,-0.0387 1.71934,-0.0301 0.36474,0.008 1.39549,0.091 1.75722,0.12672 0.36172,0.0357 1.34337,0.13885 1.69846,0.20136 0.35508,0.0626 1.3362,0.30547 1.68104,0.39439 0.34486,0.0889 1.29119,0.35474 1.62231,0.46901 0.33113,0.11427 1.24252,0.48231 1.55659,0.62079 0.31406,0.13835 1.15224,0.53151 1.44605,0.6928 0.2938,0.16127 1.10973,0.66213 1.38034,0.84458 0.2706,0.18244 0.97339,0.71221 1.21802,0.91399 0.24465,0.20179 0.88778,0.8055 1.10401,1.0246 0.21622,0.21906 0.75956,0.82124 0.94518,1.05539 0.18561,0.23415 0.67802,0.91914 0.83116,1.16601 0.15313,0.24685 0.50143,0.93714 0.62053,1.1942 0.11908,0.25707 0.42614,1.00153 0.51,1.26621 0.0839,0.26469 0.2516,1.02482 0.29937,1.29444 0.0435,0.24567 0.13353,0.8517 0.15446,1.17086 0.002,0.031 -0.0116,0.0917 -0.01,0.11576 l 4.99422,51.89269 c 0.0337,0.35242 0.0302,1.35327 0.002,1.706 -0.0286,0.3527 -0.16721,1.34606 -0.25677,1.69305 -0.0895,0.34697 -0.46623,1.30096 -0.61578,1.63626 -0.14964,0.33531 -0.609,1.23081 -0.81596,1.5487 -0.20696,0.3179 -0.86237,1.19949 -1.12319,1.49454 -0.26081,0.29507 -1.05795,1.05999 -1.36818,1.32719 -0.31023,0.26719 -1.26234,0.96367 -1.61667,1.19841 -0.35432,0.23473 -1.41747,0.83535 -1.80987,1.03364 l -35.20094,17.69884 35.10685,24.285 38.14318,-23.2119 c 0.23328,-0.14151 0.90198,-0.51369 1.15016,-0.64024 0.2482,-0.12656 0.98534,-0.44706 1.24675,-0.55785 0.26142,-0.11078 1.01874,-0.38381 1.29159,-0.47807 0.27284,-0.0943 1.05752,-0.35979 1.3399,-0.43687 0.28236,-0.0771 1.03944,-0.2617 1.32943,-0.32109 0.28999,-0.0595 1.13045,-0.19743 1.42605,-0.23868 0.2956,-0.0412 1.11991,-0.13869 1.41909,-0.16144 0.29915,-0.0229 1.15974,-0.0387 1.46041,-0.043 l 35.10846,-0.5281 0.15529,0.007 c 0.42885,-0.0133 1.28219,-0.0455 1.61579,-0.0352 0.3656,0.0116 1.34315,0.0859 1.70542,0.12424 0.36225,0.0384 1.39151,0.17729 1.74675,0.24261 0.35525,0.0654 1.33646,0.30271 1.68106,0.39441 0.34458,0.0917 1.28834,0.39052 1.6188,0.50759 0.33048,0.11709 1.24362,0.47951 1.5566,0.6208 0.31297,0.14134 1.15029,0.56733 1.44257,0.73139 0.29229,0.16409 1.05992,0.65684 1.32855,0.84199 0.26863,0.18515 0.97577,0.70962 1.21803,0.91399 0.24225,0.20438 0.8906,0.80307 1.104,1.02458 0.21342,0.22152 0.7593,0.85758 0.94169,1.09401 0.18241,0.2364 0.62985,0.91448 0.77938,1.1634 0.14947,0.24889 0.55369,0.97655 0.66884,1.23539 0.1151,0.25886 0.3821,0.95885 0.46169,1.22504 0.0796,0.26616 0.25617,1.02362 0.29938,1.29444 0.0432,0.27078 0.0824,1.04996 0.0887,1.32264 0.007,0.27266 -0.0327,1.0045 -0.0631,1.27625 -0.0312,0.27173 -0.15496,1.03898 -0.22196,1.30708 -0.0669,0.2681 -0.27093,0.99899 -0.37382,1.26071 -0.10281,0.2617 -0.44324,0.99764 -0.58097,1.25031 -0.13785,0.25265 -0.60997,0.92169 -0.78114,1.16273 -0.17121,0.24103 -0.68184,0.9306 -0.8847,1.15756 -0.20288,0.22695 -0.79713,0.82338 -1.02962,1.03398 -0.23249,0.2106 -0.91825,0.75694 -1.17801,0.949 -0.25976,0.19206 -1.04203,0.69243 -1.3264,0.86403 -0.28439,0.1716 -1.11688,0.63227 -1.42301,0.78163 -0.30614,0.14948 -1.1914,0.53503 -1.51614,0.66067 -0.32473,0.12557 -1.2174,0.44166 -1.55747,0.54227 -0.34006,0.10065 -1.29866,0.34671 -1.6506,0.42131 -0.35192,0.0746 -1.38349,0.25252 -1.74372,0.30034 -0.36022,0.0478 -1.36494,0.12539 -1.72978,0.14599 -0.34294,0.0193 -1.20245,0.039 -1.61579,0.0352 l -0.10363,-0.005 -29.01481,0.44575 -45.29302,27.50609 c -0.27964,0.17005 -1.11861,0.59453 -1.41954,0.74303 -0.30091,0.14848 -1.14511,0.5378 -1.46434,0.66327 -0.31924,0.12539 -1.22308,0.44109 -1.55747,0.54227 -0.3344,0.10114 -1.30436,0.34541 -1.6506,0.42131 -0.34624,0.0759 -1.33729,0.25305 -1.69193,0.30292 -0.35466,0.0498 -1.32195,0.16376 -1.68149,0.18713 -0.35956,0.0234 -1.41025,0.0309 -1.77114,0.0276 -0.36087,-0.003 -1.35026,-0.0555 -1.70891,-0.0857 z" />
  </g>
</svg>
